<svg width="187" height="60" viewBox="0 0 187 60" fill="none" xmlns="http://www.w3.org/2000/svg">
<path d="M84 58H185V30" stroke="white" stroke-width="4"/>
<mask id="path-2-inside-1_1_20" fill="white">
<path d="M0 30C-9.98805e-07 33.9397 2.25032 37.8407 6.62248 41.4805C10.9946 45.1203 17.403 48.4274 25.4817 51.2132C33.5604 53.999 43.1512 56.2087 53.7065 57.7164C64.2619 59.224 75.575 60 87 60L87 30L0 30Z"/>
</mask>
<path d="M0 30C-9.98805e-07 33.9397 2.25032 37.8407 6.62248 41.4805C10.9946 45.1203 17.403 48.4274 25.4817 51.2132C33.5604 53.999 43.1512 56.2087 53.7065 57.7164C64.2619 59.224 75.575 60 87 60L87 30L0 30Z" stroke="white" stroke-width="8" mask="url(#path-2-inside-1_1_20)"/>
<rect x="39" y="7" width="46" height="46" rx="23" fill="black" stroke="white" stroke-width="4"/>
<rect x="139" y="7" width="46" height="46" rx="23" fill="black" stroke="white" stroke-width="4"/>
<rect x="89" y="7" width="46" height="46" rx="23" fill="black" stroke="white" stroke-width="4"/>
<path d="M56.8672 39V21.8672H61.4961V35.2617H68.0938V39H56.8672Z" fill="white"/>
<path d="M120.156 39H114.086L107.828 26.9297H107.723C107.762 27.2969 107.797 27.7383 107.828 28.2539C107.859 28.7695 107.887 29.2969 107.91 29.8359C107.934 30.3672 107.945 30.8477 107.945 31.2773V39H103.844V21.8672H109.891L116.125 33.7734H116.195C116.172 33.3984 116.148 32.9648 116.125 32.4727C116.102 31.9727 116.078 31.4688 116.055 30.9609C116.039 30.4531 116.031 30.0039 116.031 29.6133V21.8672H120.156V39Z" fill="white"/>
<path d="M161.848 28.9688H169.242V38.2031C168.359 38.5078 167.348 38.7578 166.207 38.9531C165.066 39.1406 163.871 39.2344 162.621 39.2344C160.973 39.2344 159.527 38.9141 158.285 38.2734C157.043 37.6328 156.074 36.6602 155.379 35.3555C154.684 34.043 154.336 32.3867 154.336 30.3867C154.336 28.5898 154.68 27.0391 155.367 25.7344C156.055 24.4219 157.066 23.4102 158.402 22.6992C159.746 21.9805 161.391 21.6211 163.336 21.6211C164.406 21.6211 165.422 21.7227 166.383 21.9258C167.344 22.1289 168.18 22.3867 168.891 22.6992L167.426 26.332C166.809 26.0273 166.168 25.8008 165.504 25.6523C164.84 25.4961 164.125 25.418 163.359 25.418C162.336 25.418 161.512 25.6484 160.887 26.1094C160.27 26.5703 159.82 27.1875 159.539 27.9609C159.258 28.7266 159.117 29.5742 159.117 30.5039C159.117 31.5664 159.266 32.4648 159.562 33.1992C159.867 33.9258 160.309 34.4805 160.887 34.8633C161.473 35.2383 162.18 35.4258 163.008 35.4258C163.281 35.4258 163.613 35.4062 164.004 35.3672C164.402 35.3281 164.703 35.2812 164.906 35.2266V32.543H161.848V28.9688Z" fill="white"/>
</svg>
