<svg width="705" height="571" viewBox="0 0 705 571" fill="none" xmlns="http://www.w3.org/2000/svg">
<path d="M294.655 430.146L293.314 422.368L289.559 418.077L284.732 416.199L276.418 416.736L266.494 422.368L265.421 425.586L259.521 422.368L260.326 424.245L258.18 425.05L260.326 427.195L256.571 428.536L242.625 422.904L240.479 416.736L237.529 414.858L241.552 410.299L245.575 412.444V413.785L249.33 412.981L248.257 409.226L250.402 408.153L249.33 404.398L247.72 403.594L250.402 400.107H252.816L252.011 397.962H256.571V395.816L259.521 394.743L258.18 387.77L267.031 385.625L268.372 383.211L265.958 379.992L270.785 374.897L266.494 371.142L268.372 367.655L265.421 360.146H268.908L267.031 358.268L270.249 356.927H274.272V355.318L277.222 354.513L277.759 358.536L276.418 360.146L277.759 362.559L275.881 364.169H277.759L279.904 361.755V359.609L281.245 357.464L283.123 361.755L285.536 357.464L287.682 359.609L287.146 361.755H289.559L291.437 366.314L294.387 365.778L293.314 361.755L296.264 361.218V359.073L299.751 363.632L298.678 364.169L302.433 366.314L304.579 363.632L310.211 364.169L311.82 362.559L310.211 360.682L308.333 361.755L305.92 360.146L306.992 359.609L305.651 356.659L304.31 358L302.433 355.318L304.31 354.513L305.651 343.249L304.042 340.567L305.92 339.494L304.579 338.421L303.238 339.494L301.897 335.739L296.801 337.617L295.728 333.326L292.778 334.13L292.51 331.985L289.828 333.326L289.559 332.253L290.9 331.716L291.169 326.889L292.51 327.157L291.705 323.939L289.023 325.011L286.877 323.134L286.609 322.061L290.632 321.793L289.559 315.356L291.169 315.088L289.828 308.115L286.609 308.92V312.943H284.464L283.123 308.115H281.245L279.904 303.556L277.222 305.701V303.556L275.881 305.701L274.272 303.556L275.881 300.337L272.931 297.923L277.222 293.364L276.418 288L279.904 283.709H275.881V282.636L278.831 279.418L276.418 278.345L274.272 272.981L271.59 273.785L270.785 275.931L265.958 273.785L265.153 274.59L263.008 272.981L263.812 272.444L261.667 270.835L262.203 267.885L261.667 265.471H255.766L251.743 261.985L248.793 263.862V268.69H247.184L245.843 265.471V262.521H244.234L243.429 265.471L241.552 264.935L244.234 259.839L243.429 257.962L237.261 260.644L236.724 257.962H234.579L234.042 258.766H232.969L232.433 254.207H228.142L224.923 251.257L224.387 249.648L221.169 247.234H215.805L212.318 245.356L208.831 248.038L208.027 249.111H205.881L204.808 246.697L202.931 247.234L201.858 251.257H200.517L198.64 249.648L195.958 251.257L194.08 247.234L191.398 248.038L192.471 250.72L188.448 251.793L186.303 248.575H180.402L181.743 251.793L184.693 253.134V256.352L181.743 254.207L179.061 251.793V254.207L176.111 256.352V257.962L173.429 259.839H170.479L169.406 262.521H165.651L159.751 272.981L145.805 274.858L143.927 276.467L137.49 275.931L123.812 278.881L118.448 286.927H116.034V288.536H109.061L107.184 282.904L102.356 282.1L99.4061 275.931L96.7241 274.858L94.3103 275.931L92.7011 274.322L90.2874 276.467L84.6552 278.345L79.5594 277.54L75.8046 274.322L70.4406 276.467L66.6858 272.981L62.3946 273.785L57.0307 271.372L55.9579 274.858L49.7893 271.372V270.299L47.3755 269.226V266.276H43.8889L41.2069 269.226L40.4023 272.176H35.3065L34.5019 274.858H32.8927L31.0153 272.981L32.0881 269.226L29.6743 265.471L25.3831 267.617L21.8966 266.276L20.5556 262.253V260.912L17.6054 258.23H13.3142L10.9004 252.061L7.68199 250.184L8.48659 248.843H5V240.261L8.48659 234.628L11.9732 232.751L13.3142 223.096L17.6054 214.245H19.4828L20.5556 209.686L21.3602 209.149L24.5785 212.368L28.0651 211.563L31.0153 214.245H32.8927L32.0881 208.345L30.2107 207.808L28.0651 205.126L26.1877 200.567L27.2605 195.471L25.3831 185.816L22.9693 183.402L48.4483 148.805L64.0038 135.126V132.444L67.2222 130.567H75.5364L78.2184 124.667L79.2912 116.621L78.2184 111.793H75.5364L76.341 108.843H74.1954V107.502L75.5364 104.82H79.8276L80.9004 103.479L74.1954 98.1149L73.3908 94.8966H72.0498V89.8008H70.1724V85.7778L66.4176 82.2912L64.0038 76.9272H62.3946L64.0038 69.4176L62.3946 67.272L63.1992 63.7854L62.3946 60.5671L63.1992 58.6897L60.249 56.8123L63.1992 54.3985L67.2222 53.5939V55.2031H70.1724L72.0498 56.8123L70.1724 58.6897H76.341L79.8276 53.5939L87.6054 49.0345V43.4023L89.751 40.7203L98.8697 38.8429L105.575 40.7203L107.72 38.8429H113.352L121.13 34.8199H124.349L129.981 38.0383L135.345 36.6973L136.954 38.0383H144.195L143.659 36.1609L149.559 38.0383L152.51 36.6973L156.264 38.0383L158.41 40.7203H167.797V43.6705L171.015 45.0115H173.966L176.111 43.6705L182.011 45.0115V47.9617H183.889H185.23L187.912 49.0345L191.13 46.8889H199.444V54.1303L201.322 54.6667L200.249 57.0805H209.1L209.904 58.6897L210.441 56.0077L217.95 57.0805L219.023 60.2989L217.146 62.9808L220.632 65.6628L224.119 60.2989L223.046 57.0805L225.728 56.0077L227.069 58.6897V60.2989L233.238 59.2261L240.211 52.2529L239.138 57.0805C240.569 57.7955 243.375 59.2261 243.161 59.2261C242.946 59.2261 242.535 60.4775 242.356 61.1034L246.111 58.1533L253.889 59.2261V63.5172L254.962 66.1992L257.912 67.5402V69.4176L261.398 60.2989L264.617 58.6897L267.835 59.2261L272.126 56.0077L274.808 54.6667L277.222 59.2261L278.295 61.1034V65.6628L279.1 67.0038L280.172 71.0268H283.391L285.268 69.4176L287.95 71.0268L289.291 65.6628L293.046 63.5172L295.728 62.9808L297.337 67.0038H300.824L302.969 64.59H307.529L310.479 63.5172L315.307 62.9808L319.33 67.0038L320.67 71.0268L319.33 72.636L321.743 75.318L324.157 76.659C323.531 77.1058 322.655 78.0536 324.157 78.2682C325.659 78.4828 329.074 78.3578 330.594 78.2682V76.659V75.318L332.471 72.636L330.594 67.5402L329.253 65.6628V61.1034L327.644 59.2261L325.766 54.6667L329.253 50.9119L331.667 48.2299V45.0115L335.69 39.3793L338.103 36.9655V33.7471L342.395 31.6015L345.077 27.8467H350.977L354.464 29.9923L362.778 24.092L372.433 25.9693L376.188 25.1648L381.82 27.8467L384.234 29.9923H387.184L395.23 25.9693L397.912 24.092V18.9962L396.839 13.0958L398.985 11.2184L404.349 13.0958L410.249 16.046H419.904L427.414 11.2184L432.241 8L439.215 11.2184L445.115 13.0958L453.966 8L456.379 13.0958L460.134 16.046L462.816 22.4828L465.498 27.8467L462.816 33.7471L469.521 39.3793L474.617 45.0115V48.2299L464.157 53.5939L462.816 53.2211C462.946 53.2574 465.552 55.0939 466.839 56.0077L470.862 60.8352L472.203 62.9808L468.716 69.4176L472.203 71.295L470.862 76.1226L469.521 79.341H477.031L482.395 80.4138L485.077 79.341L488.295 83.9004H494.464L498.218 82.2912L502.241 80.4138L504.923 82.2912V87.1188V90.3372C506.175 90.3372 508.839 90.3372 509.483 90.3372C510.126 90.3372 512.612 90.3372 513.774 90.3372V94.8966L511.092 97.8467L513.774 102.674L515.651 105.893L517.261 108.307L515.651 113.67L517.261 116.084L513.774 117.157V120.375L520.479 127.885L521.284 131.372C521.462 132.444 521.981 134.59 522.625 134.59C523.268 134.59 525.575 133.696 526.648 133.249C527.363 133.339 528.847 133.303 529.061 132.444C529.276 131.586 530.939 129.941 531.743 129.226L541.935 127.885L544.349 129.226C545.153 130.031 546.87 131.801 547.299 132.444C547.728 133.088 549.444 136.467 550.249 138.077L552.931 136.199C553.376 135.395 554.326 133.946 554.54 134.59C554.755 135.234 558.027 137.54 559.636 138.613V141.295H561.782L563.123 141.831L565.268 138.077L573.046 134.59L581.897 133.249L586.992 130.835L588.602 128.69L593.161 127.349L594.77 131.372C594.325 132.534 593.697 134.912 594.77 135.126C595.843 135.341 599.507 136.646 601.207 137.272C601.03 138.523 600.778 141.188 601.207 141.831C601.636 142.475 602.103 145.497 602.28 146.927L605.498 150.414L609.253 151.755L613.812 156.582L614.885 160.069H618.64L622.126 156.582V150.414L624.808 149.609H626.149L632.854 157.119H636.073L647.337 162.751L651.36 166.506L659.943 162.751L662.893 169.724L669.866 171.87L673.084 169.724L676.839 171.87L678.448 178.307L685.958 181.793L687.567 179.916L696.686 178.307L698.027 181.793L694.808 184.475V186.889C694.181 188.14 693.307 190.858 694.808 191.716C696.31 192.575 698.654 194.756 699.636 195.739V200.031L694.808 203.249L690.249 208.345L689.176 211.563H678.448V213.709L681.13 214.782L683.008 218.268V221.218H687.567H690.249L692.931 219.341L694.272 222.023L691.858 226.046L689.176 227.119L684.08 224.973L681.13 229.264L679.789 231.946V236.506L684.08 238.383L685.958 239.456V243.211L687.567 248.575L689.176 252.866V255.28H690.249L691.858 258.23L689.176 261.716L687.567 264.667L685.958 270.299H684.08V276.199L683.008 280.222L678.448 282.1L672.011 280.222H667.184H659.943L650.019 279.149L645.728 280.222L644.387 286.391L643.046 290.95L637.414 292.291L634.195 293.632H630.172L626.149 296.046V300.874V308.115L622.126 311.065L624.808 314.82H626.149V317.77L622.126 323.134V325.28L619.176 326.084L615.153 323.134L610.326 325.28L602.816 323.134L598.257 324.207L593.429 329.839L589.674 334.398L586.456 335.471L583.506 333.326L577.069 337.08C575.905 337.795 573.368 339.494 572.51 340.567C571.651 341.64 569.468 344.054 568.487 345.126L562.854 342.176C561.245 342.623 557.866 343.678 557.222 344.322C556.579 344.966 551.59 347.272 549.176 348.345C547.658 348.345 544.295 348.345 543.008 348.345C541.72 348.345 538.359 348.345 536.839 348.345L529.33 351.831L523.697 355.586L520.211 358.536L516.992 359.877L514.847 349.954L511.897 348.345L511.36 352.636V358.536L513.238 362.559L507.069 365.778C505.996 365.241 503.743 364.49 503.314 365.778C502.885 367.065 501.169 369.711 500.364 370.874C498.308 371.32 494.034 372.268 493.391 372.483C492.747 372.697 490.977 375.075 490.172 376.238L484.808 378.383L482.931 384.015V388.307L484.808 395.011C485.613 395.101 487.383 395.441 488.027 396.084C488.671 396.728 493.659 402.074 496.073 404.667L500.364 407.617C501.347 408.69 503.314 411.05 503.314 411.908C503.314 412.766 501.347 415.841 500.364 417.272C501.347 418.523 503.314 421.08 503.314 421.295C503.314 421.51 506.354 422.994 507.874 423.709H511.36L514.847 426.123L520.211 424.782H522.356L526.111 422.636L527.452 417.272L532.548 415.931L535.498 418.345L536.839 419.954L541.13 418.345L543.008 415.931H554.004H558.831L560.709 418.345V421.295L557.222 422.636C556.777 422.546 555.774 422.636 555.345 423.709C554.916 424.782 554.272 427.732 554.004 429.073V432.828V434.973L552.663 437.387L548.64 438.192H544.349L534.157 440.874H530.402L529.33 438.192L524.502 434.437H520.211L516.992 436.046L516.188 437.923L512.165 441.678C510.466 442.483 507.069 444.253 507.069 444.897C507.069 445.54 504.566 448.383 503.314 449.724V452.406L497.95 451.065H496.073H491.513L488.027 452.406C486.328 452.764 482.931 453.533 482.931 453.747C482.931 453.962 479.713 455.982 478.103 456.966L474.349 461.793V465.28C473.186 465.727 470.648 466.728 469.789 467.157C468.931 467.586 465.498 469.481 463.889 470.375L462.816 472.253H455.307L452.088 473.326L446.992 470.375L443.774 468.766H440.287V465.28L438.142 464.207L441.628 458.843L443.774 453.747L444.579 449.188L445.651 444.897V443.019L444.579 439.264L443.774 436.046L441.628 432.828V431.755H444.579L443.774 429.073L440.287 427.732L436.801 430.146L433.314 431.755L428.755 430.146L423.927 426.123L422.586 423.709L423.927 421.295L412.663 419.954L410.785 421.295L407.567 423.709L404.617 422.636L402.739 419.954L404.617 417.272L409.444 414.054L412.663 411.908L416.149 407.617L420.977 404.667L427.414 403.326L433.314 399.034L438.142 396.084L442.969 394.475L445.651 393.134L448.333 390.72V388.307L446.992 384.015V380.797L445.651 377.31L441.628 380.797L440.287 384.015L436.801 380.797L431.973 378.383L425.805 377.31" stroke="white" stroke-width="10"/>
<path d="M383.965 371.41C383.965 376.594 379.763 380.797 374.578 380.797C369.394 380.797 365.191 376.594 365.191 371.41C365.191 366.226 369.394 362.023 374.578 362.023C379.763 362.023 383.965 366.226 383.965 371.41Z" stroke="white" stroke-width="5"/>
<path d="M352.318 135.395C357.502 135.395 361.705 131.192 361.705 126.008C361.705 120.823 357.502 116.621 352.318 116.621C347.134 116.621 342.931 120.823 342.931 126.008C342.931 131.192 347.134 135.395 352.318 135.395Z" stroke="white" stroke-width="5"/>
<path d="M119.521 155.241C121.743 155.241 123.544 153.44 123.544 151.218C123.544 148.997 121.743 147.195 119.521 147.195C117.299 147.195 115.498 148.997 115.498 151.218C115.498 153.44 117.299 155.241 119.521 155.241Z" stroke="white" stroke-width="5"/>
<path d="M503.046 174.015C505.268 174.015 507.069 172.214 507.069 169.992C507.069 167.771 505.268 165.969 503.046 165.969C500.824 165.969 499.023 167.771 499.023 169.992C499.023 172.214 500.824 174.015 503.046 174.015Z" stroke="white" stroke-width="5"/>
<path d="M390.939 74.2453C393.16 74.2453 394.962 72.4442 394.962 70.2223C394.962 68.0005 393.16 66.1993 390.939 66.1993C388.717 66.1993 386.916 68.0005 386.916 70.2223C386.916 72.4442 388.717 74.2453 390.939 74.2453Z" stroke="white" stroke-width="5"/>
<path d="M336.226 392.866C338.448 392.866 340.249 391.065 340.249 388.843C340.249 386.621 338.448 384.82 336.226 384.82C334.004 384.82 332.203 386.621 332.203 388.843C332.203 391.065 334.004 392.866 336.226 392.866Z" stroke="white" stroke-width="5"/>
<path d="M372.89 329.538L376.058 322.723H381.439L375.392 333.925V341.103H370.388V334.076L364.341 322.723H369.747L372.89 329.538ZM399.052 322.723V333.786C399.052 335.329 398.758 336.67 398.171 337.809C397.585 338.941 396.705 339.817 395.531 340.437C394.358 341.049 392.887 341.355 391.119 341.355C388.588 341.355 386.656 340.705 385.323 339.406C383.991 338.107 383.324 336.272 383.324 333.9V322.723H388.315V333.51C388.315 334.809 388.558 335.752 389.045 336.339C389.531 336.925 390.247 337.219 391.195 337.219C391.873 337.219 392.426 337.093 392.854 336.842C393.281 336.582 393.591 336.175 393.784 335.622C393.985 335.069 394.086 334.357 394.086 333.485V322.723H399.052ZM416.011 341.103H401.692V338.036L409.65 326.734H401.88V322.723H415.81V325.779L407.852 337.093H416.011V341.103ZM434.404 341.103H429.413V333.611H423.642V341.103H418.651V322.723H423.642V329.538H429.413V322.723H434.404V341.103ZM455.889 341.103H449.377L442.664 328.154H442.55C442.592 328.549 442.63 329.022 442.664 329.575C442.697 330.128 442.726 330.694 442.752 331.272C442.777 331.842 442.789 332.358 442.789 332.819V341.103H438.389V322.723H444.876L451.564 335.497H451.64C451.614 335.094 451.589 334.629 451.564 334.101C451.539 333.564 451.514 333.024 451.489 332.479C451.472 331.934 451.464 331.453 451.464 331.034V322.723H455.889V341.103ZM466.424 329.538L469.592 322.723H474.973L468.926 333.925V341.103H463.922V334.076L457.875 322.723H463.281L466.424 329.538ZM475.514 346.874C474.952 346.874 474.462 346.845 474.043 346.786C473.615 346.736 473.246 346.677 472.936 346.61V342.75C473.204 342.801 473.489 342.855 473.791 342.914C474.093 342.981 474.42 343.014 474.772 343.014C475.367 343.014 475.828 342.893 476.155 342.65C476.49 342.407 476.725 342.042 476.859 341.556C476.993 341.07 477.06 340.462 477.06 339.733V322.723H482.051V339.305C482.051 341.15 481.775 342.625 481.221 343.731C480.668 344.837 479.901 345.638 478.92 346.132C477.94 346.627 476.804 346.874 475.514 346.874Z" fill="white"/>
<path d="M419.854 257.392H427.787V267.298C426.84 267.625 425.754 267.894 424.531 268.103C423.307 268.304 422.025 268.405 420.684 268.405C418.915 268.405 417.365 268.061 416.032 267.374C414.699 266.687 413.66 265.643 412.914 264.243C412.168 262.835 411.795 261.058 411.795 258.913C411.795 256.985 412.164 255.322 412.901 253.922C413.639 252.514 414.725 251.428 416.158 250.666C417.599 249.895 419.363 249.509 421.451 249.509C422.598 249.509 423.688 249.618 424.719 249.836C425.75 250.054 426.647 250.33 427.409 250.666L425.838 254.563C425.176 254.236 424.489 253.993 423.776 253.834C423.064 253.666 422.297 253.583 421.476 253.583C420.378 253.583 419.493 253.83 418.823 254.324C418.161 254.819 417.679 255.481 417.377 256.311C417.076 257.132 416.924 258.041 416.924 259.039C416.924 260.179 417.084 261.143 417.402 261.93C417.729 262.71 418.203 263.305 418.823 263.716C419.451 264.118 420.21 264.319 421.099 264.319C421.392 264.319 421.748 264.298 422.167 264.256C422.595 264.214 422.917 264.164 423.135 264.105V261.226H419.854V257.392ZM442.81 268.153L441.905 264.709H435.933L435.003 268.153H429.547L435.543 249.698H442.169L448.241 268.153H442.81ZM440.874 260.635L440.082 257.618C439.998 257.291 439.876 256.826 439.718 256.223C439.558 255.611 439.399 254.982 439.24 254.337C439.089 253.683 438.972 253.146 438.888 252.728C438.812 253.146 438.703 253.666 438.561 254.286C438.427 254.898 438.284 255.506 438.133 256.11C437.991 256.713 437.865 257.216 437.756 257.618L436.964 260.635H440.874ZM462.259 262.572C462.259 263.569 462.007 264.516 461.505 265.413C461.001 266.301 460.218 267.022 459.153 267.575C458.097 268.128 456.731 268.405 455.055 268.405C454.217 268.405 453.479 268.367 452.842 268.292C452.214 268.216 451.627 268.095 451.082 267.927C450.537 267.751 449.972 267.525 449.385 267.248V262.823C450.382 263.326 451.388 263.711 452.402 263.98C453.417 264.239 454.334 264.369 455.156 264.369C455.65 264.369 456.053 264.311 456.363 264.193C456.681 264.076 456.916 263.917 457.066 263.716C457.217 263.506 457.293 263.267 457.293 262.999C457.293 262.68 457.18 262.412 456.953 262.194C456.735 261.968 456.384 261.733 455.898 261.49C455.411 261.247 454.77 260.945 453.974 260.585C453.295 260.267 452.679 259.94 452.126 259.604C451.581 259.269 451.112 258.888 450.718 258.461C450.332 258.024 450.035 257.518 449.825 256.939C449.616 256.361 449.511 255.678 449.511 254.89C449.511 253.708 449.8 252.72 450.378 251.923C450.965 251.118 451.778 250.515 452.817 250.113C453.865 249.71 455.072 249.509 456.438 249.509C457.637 249.509 458.714 249.643 459.669 249.911C460.633 250.18 461.496 250.485 462.259 250.829L460.737 254.664C459.95 254.303 459.174 254.018 458.412 253.809C457.649 253.591 456.941 253.482 456.287 253.482C455.859 253.482 455.508 253.536 455.231 253.645C454.963 253.746 454.761 253.884 454.627 254.06C454.502 254.236 454.439 254.438 454.439 254.664C454.439 254.949 454.548 255.204 454.766 255.43C454.992 255.657 455.365 255.904 455.885 256.172C456.413 256.432 457.129 256.771 458.035 257.19C458.931 257.593 459.694 258.029 460.323 258.498C460.951 258.959 461.429 259.516 461.756 260.17C462.091 260.815 462.259 261.616 462.259 262.572Z" fill="#25ACC9"/>
<path d="M261.08 142.603H269.013V152.509C268.066 152.836 266.98 153.104 265.757 153.314C264.533 153.515 263.251 153.616 261.91 153.616C260.141 153.616 258.591 153.272 257.258 152.585C255.926 151.897 254.886 150.854 254.14 149.454C253.394 148.046 253.021 146.269 253.021 144.123C253.021 142.196 253.39 140.532 254.128 139.133C254.865 137.725 255.951 136.639 257.384 135.876C258.825 135.106 260.59 134.72 262.677 134.72C263.825 134.72 264.915 134.829 265.945 135.047C266.976 135.265 267.873 135.541 268.636 135.876L267.064 139.774C266.402 139.447 265.715 139.204 265.002 139.045C264.29 138.877 263.523 138.793 262.702 138.793C261.604 138.793 260.719 139.041 260.049 139.535C259.387 140.03 258.905 140.692 258.603 141.521C258.302 142.343 258.151 143.252 258.151 144.249C258.151 145.389 258.31 146.353 258.628 147.141C258.955 147.921 259.429 148.515 260.049 148.926C260.678 149.329 261.436 149.53 262.325 149.53C262.618 149.53 262.974 149.508 263.393 149.467C263.821 149.425 264.143 149.374 264.361 149.316V146.437H261.08V142.603ZM284.036 153.364L283.131 149.919H277.159L276.229 153.364H270.773L276.769 134.909H283.395L289.467 153.364H284.036ZM282.1 145.846L281.308 142.829C281.224 142.502 281.102 142.037 280.944 141.433C280.784 140.821 280.625 140.193 280.466 139.547C280.315 138.894 280.198 138.357 280.114 137.938C280.038 138.357 279.929 138.877 279.787 139.497C279.653 140.109 279.51 140.717 279.359 141.32C279.217 141.924 279.091 142.426 278.982 142.829L278.19 145.846H282.1ZM303.485 147.782C303.485 148.779 303.233 149.727 302.731 150.624C302.227 151.512 301.444 152.233 300.38 152.786C299.323 153.339 297.957 153.616 296.281 153.616C295.443 153.616 294.706 153.577 294.068 153.502C293.44 153.427 292.853 153.306 292.308 153.138C291.763 152.962 291.198 152.735 290.611 152.459V148.033C291.608 148.536 292.614 148.922 293.628 149.19C294.643 149.45 295.561 149.58 296.382 149.58C296.876 149.58 297.279 149.521 297.589 149.404C297.907 149.286 298.142 149.128 298.292 148.926C298.443 148.717 298.519 148.478 298.519 148.21C298.519 147.891 298.406 147.623 298.179 147.405C297.961 147.179 297.61 146.944 297.124 146.701C296.637 146.458 295.996 146.156 295.2 145.796C294.521 145.477 293.905 145.151 293.352 144.815C292.807 144.48 292.338 144.099 291.944 143.671C291.559 143.235 291.261 142.728 291.051 142.15C290.842 141.572 290.737 140.888 290.737 140.1C290.737 138.919 291.026 137.93 291.604 137.134C292.191 136.329 293.004 135.726 294.043 135.323C295.091 134.921 296.298 134.72 297.664 134.72C298.863 134.72 299.94 134.854 300.895 135.122C301.859 135.39 302.722 135.696 303.485 136.04L301.964 139.875C301.176 139.514 300.4 139.229 299.638 139.02C298.875 138.802 298.167 138.692 297.513 138.692C297.086 138.692 296.734 138.747 296.457 138.856C296.189 138.957 295.988 139.095 295.853 139.271C295.728 139.447 295.665 139.648 295.665 139.875C295.665 140.159 295.774 140.415 295.992 140.641C296.218 140.868 296.591 141.115 297.111 141.383C297.639 141.643 298.355 141.982 299.261 142.401C300.158 142.803 300.92 143.239 301.549 143.709C302.177 144.17 302.655 144.727 302.982 145.381C303.317 146.026 303.485 146.826 303.485 147.782Z" fill="#25ACC9"/>
<path d="M123.762 214.48H131.695V224.386C130.748 224.714 129.662 224.982 128.439 225.191C127.215 225.392 125.933 225.493 124.592 225.493C122.823 225.493 121.273 225.149 119.94 224.462C118.608 223.775 117.568 222.731 116.823 221.332C116.076 219.924 115.704 218.146 115.704 216.001C115.704 214.074 116.072 212.41 116.81 211.01C117.547 209.602 118.633 208.517 120.066 207.754C121.507 206.983 123.272 206.597 125.359 206.597C126.507 206.597 127.597 206.706 128.628 206.924C129.658 207.142 130.555 207.419 131.318 207.754L129.746 211.651C129.084 211.325 128.397 211.082 127.685 210.922C126.972 210.754 126.205 210.671 125.384 210.671C124.286 210.671 123.401 210.918 122.731 211.413C122.069 211.907 121.587 212.569 121.285 213.399C120.984 214.22 120.833 215.129 120.833 216.127C120.833 217.267 120.992 218.231 121.311 219.018C121.637 219.798 122.111 220.393 122.731 220.804C123.36 221.206 124.118 221.407 125.007 221.407C125.3 221.407 125.656 221.386 126.075 221.344C126.503 221.302 126.825 221.252 127.043 221.193V218.314H123.762V214.48ZM146.718 225.241L145.813 221.797H139.842L138.911 225.241H133.455L139.452 206.786H146.077L152.149 225.241H146.718ZM144.782 217.723L143.99 214.706C143.906 214.379 143.785 213.914 143.626 213.311C143.467 212.699 143.307 212.07 143.148 211.425C142.997 210.771 142.88 210.235 142.796 209.816C142.72 210.235 142.612 210.754 142.469 211.374C142.335 211.986 142.193 212.594 142.041 213.198C141.899 213.801 141.773 214.304 141.664 214.706L140.873 217.723H144.782ZM166.167 219.66C166.167 220.657 165.915 221.604 165.413 222.501C164.91 223.389 164.126 224.11 163.062 224.663C162.006 225.216 160.639 225.493 158.963 225.493C158.125 225.493 157.388 225.455 156.75 225.38C156.122 225.304 155.535 225.183 154.991 225.015C154.446 224.839 153.88 224.613 153.293 224.336V219.911C154.291 220.414 155.296 220.8 156.311 221.068C157.325 221.327 158.243 221.457 159.064 221.457C159.558 221.457 159.961 221.399 160.271 221.281C160.589 221.164 160.824 221.005 160.975 220.804C161.125 220.594 161.201 220.355 161.201 220.087C161.201 219.769 161.088 219.5 160.861 219.283C160.644 219.056 160.292 218.821 159.806 218.578C159.319 218.335 158.678 218.033 157.882 217.673C157.203 217.355 156.587 217.028 156.034 216.692C155.489 216.358 155.02 215.976 154.626 215.549C154.241 215.113 153.943 214.606 153.733 214.027C153.524 213.449 153.419 212.766 153.419 211.978C153.419 210.796 153.708 209.808 154.286 209.011C154.873 208.206 155.686 207.603 156.725 207.201C157.773 206.798 158.98 206.597 160.346 206.597C161.545 206.597 162.622 206.731 163.577 207C164.541 207.268 165.404 207.574 166.167 207.917L164.646 211.752C163.858 211.392 163.083 211.106 162.32 210.897C161.557 210.679 160.849 210.57 160.195 210.57C159.768 210.57 159.416 210.625 159.139 210.733C158.871 210.834 158.67 210.972 158.536 211.149C158.41 211.325 158.347 211.526 158.347 211.752C158.347 212.037 158.456 212.292 158.674 212.519C158.9 212.745 159.273 212.992 159.793 213.26C160.321 213.52 161.037 213.86 161.943 214.279C162.84 214.681 163.602 215.117 164.231 215.586C164.859 216.047 165.337 216.604 165.664 217.258C165.999 217.903 166.167 218.704 166.167 219.66Z" fill="#25ACC9"/>
<path d="M341.594 173.211H335.987L332.354 166.183L330.883 167.063V173.211H325.892V154.831H330.883V162.814C331.093 162.411 331.331 162.009 331.599 161.607C331.876 161.205 332.144 160.823 332.404 160.463L336.263 154.831H341.694L335.899 163.065L341.594 173.211ZM350.156 161.645L353.324 154.831H358.704L352.657 166.032V173.211H347.654V166.183L341.606 154.831H347.012L350.156 161.645ZM360.69 173.211V154.831H365.682V173.211H360.69ZM385.545 154.831L379.523 173.211H373.677L367.681 154.831H373.263L375.764 164.147C375.857 164.499 375.961 164.951 376.079 165.504C376.204 166.049 376.317 166.594 376.418 167.139C376.527 167.683 376.594 168.127 376.619 168.471C376.653 168.127 376.715 167.687 376.808 167.151C376.9 166.615 377.001 166.078 377.11 165.542C377.227 164.997 377.336 164.549 377.436 164.197L379.988 154.831H385.545Z" fill="white"/>
<path d="M299.94 403.546C299.94 404.254 299.853 404.9 299.682 405.482C299.514 406.06 299.25 406.559 298.89 406.978C298.529 407.397 298.066 407.719 297.501 407.946C296.935 408.168 296.258 408.279 295.47 408.279C294.699 408.279 294.031 408.168 293.465 407.946C292.903 407.719 292.44 407.399 292.075 406.984C291.711 406.565 291.441 406.064 291.265 405.482C291.089 404.9 291.001 404.25 291.001 403.533C291.001 402.578 291.158 401.748 291.472 401.044C291.791 400.336 292.281 399.789 292.943 399.404C293.605 399.014 294.452 398.819 295.483 398.819C296.53 398.819 297.381 399.014 298.035 399.404C298.692 399.793 299.175 400.342 299.48 401.05C299.786 401.758 299.94 402.59 299.94 403.546ZM293.615 403.546C293.615 404.099 293.679 404.575 293.804 404.973C293.93 405.371 294.129 405.677 294.401 405.89C294.674 406.104 295.03 406.211 295.47 406.211C295.927 406.211 296.289 406.104 296.558 405.89C296.83 405.677 297.025 405.371 297.142 404.973C297.263 404.575 297.325 404.099 297.325 403.546C297.325 402.716 297.186 402.06 296.909 401.578C296.633 401.097 296.157 400.856 295.483 400.856C295.034 400.856 294.672 400.965 294.395 401.182C294.123 401.4 293.924 401.71 293.798 402.112C293.677 402.515 293.615 402.993 293.615 403.546ZM309.399 403.363C309.399 404.432 309.2 405.321 308.802 406.029C308.404 406.737 307.843 407.269 307.118 407.626C306.397 407.977 305.549 408.153 304.572 408.153H301.599V398.963H304.779C305.769 398.963 306.606 399.133 307.294 399.472C307.981 399.812 308.503 400.309 308.859 400.962C309.219 401.616 309.399 402.417 309.399 403.363ZM306.823 403.451C306.823 402.894 306.747 402.433 306.596 402.068C306.449 401.7 306.227 401.425 305.93 401.245C305.632 401.061 305.257 400.968 304.805 400.968H304.082V406.117H304.635C305.389 406.117 305.942 405.899 306.294 405.463C306.646 405.023 306.823 404.352 306.823 403.451ZM316.509 408.153H311.053V398.963H316.509V400.956H313.536V402.402H316.289V404.394H313.536V406.13H316.509V408.153ZM324.127 405.362C324.127 405.861 324.002 406.334 323.75 406.783C323.499 407.227 323.107 407.587 322.575 407.864C322.047 408.141 321.364 408.279 320.525 408.279C320.106 408.279 319.738 408.26 319.419 408.223C319.105 408.185 318.812 408.124 318.539 408.04C318.267 407.952 317.984 407.839 317.691 407.701V405.488C318.189 405.74 318.692 405.932 319.199 406.066C319.706 406.197 320.165 406.261 320.576 406.261C320.823 406.261 321.024 406.232 321.179 406.174C321.339 406.115 321.456 406.035 321.531 405.934C321.607 405.83 321.644 405.71 321.644 405.576C321.644 405.417 321.588 405.283 321.475 405.174C321.366 405.06 321.19 404.944 320.947 404.822C320.704 404.7 320.383 404.549 319.985 404.369C319.646 404.21 319.338 404.047 319.061 403.879C318.789 403.711 318.554 403.521 318.357 403.307C318.164 403.089 318.016 402.836 317.91 402.546C317.806 402.257 317.753 401.916 317.753 401.522C317.753 400.931 317.898 400.436 318.187 400.038C318.481 399.636 318.887 399.334 319.407 399.133C319.931 398.932 320.534 398.831 321.217 398.831C321.817 398.831 322.355 398.898 322.832 399.032C323.315 399.167 323.746 399.319 324.127 399.492L323.367 401.409C322.973 401.228 322.585 401.086 322.204 400.981C321.822 400.872 321.468 400.818 321.142 400.818C320.928 400.818 320.752 400.845 320.614 400.9C320.48 400.95 320.379 401.019 320.312 401.107C320.249 401.195 320.218 401.296 320.218 401.409C320.218 401.551 320.272 401.679 320.381 401.792C320.494 401.905 320.681 402.029 320.941 402.163C321.205 402.293 321.563 402.463 322.016 402.672C322.464 402.873 322.845 403.091 323.16 403.326C323.474 403.556 323.713 403.835 323.876 404.162C324.044 404.484 324.127 404.885 324.127 405.362ZM331.558 405.362C331.558 405.861 331.431 406.334 331.18 406.783C330.929 407.227 330.537 407.587 330.005 407.864C329.477 408.141 328.794 408.279 327.956 408.279C327.537 408.279 327.168 408.26 326.85 408.223C326.535 408.185 326.242 408.124 325.969 408.04C325.697 407.952 325.414 407.839 325.121 407.701V405.488C325.62 405.74 326.122 405.932 326.629 406.066C327.137 406.197 327.595 406.261 328.006 406.261C328.253 406.261 328.454 406.232 328.61 406.174C328.769 406.115 328.886 406.035 328.961 405.934C329.037 405.83 329.075 405.71 329.075 405.576C329.075 405.417 329.018 405.283 328.905 405.174C328.796 405.06 328.62 404.944 328.377 404.822C328.134 404.7 327.813 404.549 327.415 404.369C327.075 404.21 326.767 404.047 326.491 403.879C326.219 403.711 325.984 403.521 325.787 403.307C325.594 403.089 325.445 402.836 325.341 402.546C325.236 402.257 325.184 401.916 325.184 401.522C325.184 400.931 325.328 400.436 325.617 400.038C325.911 399.636 326.317 399.334 326.837 399.133C327.361 398.932 327.964 398.831 328.647 398.831C329.246 398.831 329.785 398.898 330.263 399.032C330.744 399.167 331.176 399.319 331.558 399.492L330.797 401.409C330.403 401.228 330.015 401.086 329.634 400.981C329.253 400.872 328.899 400.818 328.571 400.818C328.358 400.818 328.182 400.845 328.044 400.9C327.909 400.95 327.809 401.019 327.742 401.107C327.679 401.195 327.648 401.296 327.648 401.409C327.648 401.551 327.702 401.679 327.811 401.792C327.924 401.905 328.111 402.029 328.37 402.163C328.635 402.293 328.993 402.463 329.445 402.672C329.894 402.873 330.275 403.091 330.589 403.326C330.904 403.556 331.142 403.835 331.306 404.162C331.474 404.484 331.558 404.885 331.558 405.362ZM338.617 408.153L338.164 406.431H335.178L334.713 408.153H331.985L334.984 398.926H338.296L341.332 408.153H338.617ZM337.648 404.394L337.252 402.886C337.211 402.722 337.15 402.49 337.07 402.188C336.991 401.882 336.911 401.568 336.831 401.245C336.756 400.918 336.697 400.65 336.655 400.44C336.617 400.65 336.563 400.91 336.492 401.22C336.425 401.526 336.353 401.83 336.278 402.131C336.207 402.433 336.144 402.685 336.09 402.886L335.694 404.394H337.648Z" fill="white"/>
<path d="M105.585 129.226V120.036H108.068V127.221H111.607V129.226H105.585ZM121.017 120.036L118.006 129.226H115.083L112.085 120.036H114.876L116.127 124.694C116.173 124.87 116.225 125.096 116.284 125.373C116.347 125.645 116.404 125.918 116.453 126.19C116.508 126.463 116.541 126.685 116.554 126.856C116.571 126.685 116.603 126.465 116.649 126.197C116.694 125.928 116.745 125.66 116.799 125.392C116.858 125.119 116.913 124.895 116.962 124.719L118.239 120.036H121.017ZM122.016 129.226V120.036H124.512V129.226H122.016ZM134.444 120.036L131.433 129.226H128.51L125.512 120.036H128.302L129.553 124.694C129.599 124.87 129.652 125.096 129.711 125.373C129.773 125.645 129.83 125.918 129.88 126.19C129.935 126.463 129.969 126.685 129.981 126.856C129.997 126.685 130.029 126.465 130.075 126.197C130.121 125.928 130.171 125.66 130.226 125.392C130.284 125.119 130.339 124.895 130.39 124.719L131.666 120.036H134.444Z" fill="white"/>
<path d="M533.585 175.356H530.781L528.965 171.842L528.229 172.283V175.356H525.734V166.166H528.229V170.158C528.334 169.957 528.453 169.756 528.588 169.555C528.726 169.353 528.86 169.163 528.99 168.982L530.92 166.166H533.635L530.737 170.284L533.585 175.356ZM542.46 175.356H539.966V171.61H537.08V175.356H534.584V166.166H537.08V169.573H539.966V166.166H542.46V175.356ZM550.093 175.356L549.637 173.634H546.655L546.188 175.356H543.458L546.457 166.129H549.772L552.808 175.356H550.093ZM549.122 171.597L548.726 170.089C548.688 169.925 548.624 169.692 548.543 169.391C548.468 169.085 548.388 168.771 548.307 168.448C548.232 168.121 548.173 167.853 548.13 167.643C548.093 167.853 548.039 168.113 547.969 168.423C547.899 168.729 547.83 169.033 547.755 169.334C547.68 169.636 547.621 169.888 547.567 170.089L547.17 171.597H549.122ZM556.82 166.166C557.651 166.166 558.343 166.269 558.896 166.474C559.454 166.675 559.867 166.977 560.145 167.38C560.424 167.782 560.564 168.282 560.564 168.882C560.564 169.255 560.499 169.594 560.376 169.9C560.247 170.206 560.07 170.48 559.834 170.723C559.604 170.963 559.33 171.172 559.003 171.352L561.685 175.356H558.869L556.916 172.012H556.289V175.356H553.805V166.166H556.82ZM556.782 168.046H556.289V170.145H556.755C557.136 170.145 557.447 170.062 557.694 169.894C557.936 169.726 558.054 169.426 558.054 168.995C558.054 168.697 557.957 168.465 557.753 168.297C557.555 168.129 557.227 168.046 556.782 168.046ZM570.369 175.356H567.569L565.751 171.842L565.016 172.283V175.356H562.522V166.166H565.016V170.158C565.118 169.957 565.241 169.756 565.375 169.555C565.509 169.353 565.644 169.163 565.778 168.982L567.703 166.166H570.423L567.521 170.284L570.369 175.356ZM571.372 175.356V166.166H573.867V175.356H571.372ZM583.795 166.166L580.786 175.356H577.863L574.864 166.166H577.653L578.909 170.824C578.952 171 579.005 171.227 579.064 171.503C579.129 171.775 579.182 172.048 579.236 172.32C579.29 172.593 579.322 172.815 579.332 172.987C579.349 172.815 579.381 172.595 579.429 172.327C579.472 172.059 579.526 171.79 579.579 171.522C579.638 171.25 579.692 171.025 579.74 170.85L581.017 166.166H583.795Z" fill="white"/>
<path d="M369.416 91.9024C369.122 91.9024 368.86 91.9652 368.63 92.0912C368.399 92.2125 368.202 92.3906 368.039 92.6255C367.876 92.8599 367.75 93.1469 367.662 93.4864C367.578 93.8217 367.536 94.203 367.536 94.6305C367.536 95.2088 367.61 95.6948 367.756 96.089C367.903 96.4827 368.125 96.7804 368.422 96.9816C368.724 97.1827 369.101 97.283 369.554 97.283C369.964 97.283 370.359 97.2267 370.736 97.1135C371.117 97.0004 371.501 96.8641 371.886 96.7048V98.8043C371.48 98.9845 371.062 99.1143 370.635 99.1942C370.212 99.2736 369.762 99.3133 369.284 99.3133C368.287 99.3133 367.469 99.1164 366.832 98.7227C366.199 98.3247 365.732 97.7733 365.43 97.0696C365.133 96.3653 364.984 95.5483 364.984 94.6177C364.984 93.9225 365.08 93.2853 365.273 92.707C365.47 92.1288 365.757 91.6278 366.134 91.2046C366.512 90.7771 366.977 90.4482 367.53 90.2176C368.087 89.9832 368.724 89.8657 369.441 89.8657C369.885 89.8657 370.352 89.9183 370.842 90.0229C371.337 90.1237 371.819 90.2868 372.288 90.5132L371.527 92.4683C371.193 92.309 370.853 92.1749 370.509 92.066C370.166 91.9571 369.801 91.9024 369.416 91.9024ZM381.56 99.1878H379.064V95.4416H376.179V99.1878H373.684V89.9977H376.179V93.4049H379.064V89.9977H381.56V99.1878ZM389.009 99.1878H383.552V89.9977H389.009V91.9904H386.035V93.436H388.789V95.4287H386.035V97.164H389.009V99.1878ZM393.629 89.9977C394.463 89.9977 395.156 90.1007 395.71 90.3056C396.263 90.5067 396.678 90.8087 396.954 91.211C397.235 91.6133 397.375 92.1138 397.375 92.7135C397.375 93.0863 397.313 93.4258 397.187 93.7315C397.061 94.0373 396.881 94.3119 396.646 94.5549C396.416 94.7942 396.139 95.0033 395.817 95.1836L398.494 99.1878H395.678L393.729 95.8439H393.101V99.1878H390.618V89.9977H393.629ZM393.591 91.8772H393.101V93.9767H393.566C393.947 93.9767 394.259 93.893 394.503 93.7251C394.746 93.5577 394.867 93.2579 394.867 92.8266C394.867 92.5289 394.767 92.2961 394.566 92.1288C394.365 91.9609 394.04 91.8772 393.591 91.8772ZM408.08 99.1878H404.824L401.468 92.7135H401.411C401.432 92.9103 401.451 93.1469 401.468 93.4237C401.484 93.7004 401.499 93.9831 401.512 94.2722C401.524 94.5571 401.53 94.8151 401.53 95.0452V99.1878H399.331V89.9977H402.574L405.918 96.384H405.956C405.943 96.1829 405.93 95.9506 405.918 95.6867C405.905 95.4185 405.893 95.1482 405.88 94.8757C405.872 94.6032 405.868 94.3624 405.868 94.1526V89.9977H408.08V99.1878ZM410.067 99.1878V89.9977H412.562V99.1878H410.067ZM422.431 99.1878H419.936V95.4416H417.05V99.1878H414.555V89.9977H417.05V93.4049H419.936V89.9977H422.431V99.1878ZM424.424 99.1878V89.9977H426.919V99.1878H424.424ZM436.851 89.9977L433.84 99.1878H430.917L427.918 89.9977H430.71L431.961 94.6558C432.006 94.8317 432.059 95.0581 432.118 95.3343C432.181 95.6068 432.237 95.8793 432.287 96.1518C432.342 96.4243 432.375 96.6463 432.388 96.818C432.405 96.6463 432.436 96.4264 432.482 96.1582C432.528 95.89 432.579 95.6218 432.633 95.3536C432.692 95.0811 432.746 94.8569 432.796 94.681L434.073 89.9977H436.851Z" fill="white"/>
<path d="M369.214 364.169C345.523 322.955 325.712 235.487 435.996 215.318" stroke="white" stroke-width="4"/>
<path d="M368.41 364.169C344.852 330.653 296.639 247.148 292.241 181.257" stroke="white" stroke-width="4"/>
<path d="M366.801 366.851C340.465 317.146 264.973 209.154 173.697 174.82" stroke="white" stroke-width="4"/>
<path d="M171.015 173.747C174.502 175.535 181.368 181.31 180.939 190.107" stroke="white" stroke-width="4"/>
<path d="M171.283 174.015C174.233 175.178 182.011 175.785 189.521 168.92" stroke="white" stroke-width="4"/>
<path d="M292.326 179.449C292.585 183.358 291.164 192.217 283.399 196.373" stroke="white" stroke-width="4"/>
<path d="M292.233 179.817C292.754 182.944 296.233 189.927 305.983 192.836" stroke="white" stroke-width="4"/>
<path d="M442.664 215.345C438.772 215.795 429.854 214.808 425.323 207.256" stroke="white" stroke-width="4"/>
<path d="M442.292 215.271C439.194 215.944 432.389 219.76 429.96 229.641" stroke="white" stroke-width="4"/>
<path d="M204.272 568.536L315.575 510.069C323.174 505.599 339.283 493.119 342.931 478.958C346.578 464.797 362.867 411.193 370.555 386.161" stroke="white" stroke-width="4"/>
<path d="M371.168 383.681C369.934 387.4 365.276 395.068 356.517 395.989" stroke="white" stroke-width="4"/>
<path d="M370.944 383.987C370.246 387.08 370.835 394.859 378.768 401.231" stroke="white" stroke-width="4"/>
<path d="M279.194 485.328L269.114 515.353L201.118 549.677L189.671 535.928L187.495 531.619L279.194 485.328Z" stroke="white" stroke-width="10"/>
<path d="M277.394 485.335C276.601 483.762 275.505 482.362 274.17 481.213C272.836 480.065 271.288 479.19 269.615 478.64C267.942 478.089 266.177 477.874 264.421 478.005C262.665 478.137 260.952 478.613 259.38 479.407C257.808 480.201 256.407 481.296 255.258 482.631C254.11 483.966 253.236 485.514 252.685 487.186C252.135 488.859 251.919 490.624 252.051 492.38C252.182 494.136 252.659 495.849 253.452 497.421L265.423 491.378L277.394 485.335Z" stroke="white" stroke-width="2"/>
<path d="M252.699 498.076C251.905 496.504 250.81 495.104 249.475 493.955C248.14 492.806 246.592 491.931 244.919 491.381C243.247 490.831 241.482 490.615 239.726 490.746C237.97 490.878 236.257 491.354 234.684 492.148C233.113 492.942 231.712 494.037 230.563 495.372C229.415 496.707 228.54 498.255 227.99 499.927C227.439 501.6 227.224 503.365 227.356 505.121C227.487 506.878 227.963 508.59 228.757 510.162L240.728 504.119L252.699 498.076Z" stroke="white" stroke-width="2"/>
<path d="M229.699 510.076C228.905 508.504 227.81 507.104 226.475 505.955C225.14 504.806 223.592 503.931 221.919 503.381C220.247 502.831 218.482 502.615 216.726 502.746C214.97 502.878 213.257 503.354 211.684 504.148C210.113 504.942 208.712 506.037 207.563 507.372C206.415 508.707 205.54 510.255 204.99 511.927C204.439 513.6 204.224 515.365 204.356 517.121C204.487 518.878 204.963 520.59 205.757 522.162L217.728 516.119L229.699 510.076Z" stroke="white" stroke-width="2"/>
<path d="M186.77 530.182L181.694 520.126L182.51 514.006L192.566 508.93L197.496 512.15L202.572 522.205" stroke="white" stroke-width="4"/>
<path d="M184.541 512.08C182.526 507.889 177.727 499.176 174.651 497.845" stroke="white" stroke-width="4"/>
<path d="M188.983 510.138C186.808 506.028 182.647 496.993 183.401 493.728" stroke="white" stroke-width="4"/>
<path d="M171.655 498.455L185.542 491.445" stroke="white" stroke-width="4"/>
<path d="M223.585 531.126L219.443 522.922L221.66 521.803L224.897 528.217L228.057 526.622L228.961 528.412L223.585 531.126ZM238.085 523.806L235.178 525.273L229.264 521.006L229.213 521.032C229.321 521.198 229.445 521.401 229.584 521.64C229.723 521.88 229.864 522.125 230.006 522.378C230.145 522.626 230.267 522.854 230.371 523.06L232.238 526.758L230.274 527.749L226.132 519.545L229.028 518.083L234.891 522.278L234.925 522.261C234.823 522.087 234.707 521.885 234.577 521.655C234.444 521.421 234.311 521.185 234.178 520.948C234.047 520.708 233.935 520.495 233.84 520.308L231.968 516.599L233.943 515.602L238.085 523.806ZM240.727 516.444L244.268 514.657L246.5 519.079C246.151 519.438 245.727 519.802 245.228 520.172C244.727 520.537 244.177 520.871 243.579 521.173C242.79 521.571 242.02 521.768 241.27 521.761C240.521 521.755 239.822 521.523 239.173 521.067C238.523 520.606 237.957 519.897 237.473 518.939C237.038 518.079 236.828 517.253 236.842 516.462C236.854 515.668 237.094 514.939 237.562 514.275C238.032 513.606 238.732 513.037 239.663 512.566C240.176 512.308 240.687 512.111 241.196 511.976C241.706 511.841 242.168 511.762 242.584 511.74L242.761 513.833C242.392 513.837 242.03 513.883 241.676 513.973C241.32 514.059 240.959 514.194 240.592 514.379C240.103 514.626 239.764 514.936 239.575 515.307C239.391 515.677 239.326 516.082 239.378 516.52C239.428 516.955 239.566 517.394 239.791 517.84C240.048 518.348 240.336 518.743 240.655 519.022C240.977 519.297 241.323 519.456 241.692 519.499C242.063 519.537 242.447 519.456 242.843 519.256C242.975 519.19 243.129 519.1 243.306 518.987C243.487 518.872 243.62 518.777 243.704 518.702L243.056 517.416L241.591 518.156L240.727 516.444Z" fill="white"/>
</svg>
